<?xml version="1.0" standalone="no"?>
<!DOCTYPE svg PUBLIC "-//W3C//DTD SVG 20010904//EN"
 "http://www.w3.org/TR/2001/REC-SVG-20010904/DTD/svg10.dtd">
<svg version="1.0" xmlns="http://www.w3.org/2000/svg"
 width="2240.000000pt" height="2240.000000pt" viewBox="0 0 2240.000000 2240.000000"
 preserveAspectRatio="xMidYMid meet">

<g transform="translate(0.000000,2240.000000) scale(0.100000,-0.100000)"
fill="#000000" stroke="none">
<path d="M10805 22394 c-714 -35 -1269 -101 -1848 -220 -1957 -400 -3720
-1289 -5237 -2638 -174 -155 -701 -682 -856 -856 -1437 -1615 -2359 -3528
-2708 -5617 -108 -646 -151 -1171 -151 -1863 0 -470 8 -651 46 -1055 222
-2387 1204 -4631 2813 -6424 178 -198 398 -423 406 -414 3 4 21 62 39 128 18
66 60 203 93 305 807 2478 2766 4441 5243 5253 650 213 1352 348 2010 387 105
6 224 14 265 17 l75 7 -115 7 c-1596 105 -3048 1067 -3780 2504 -817 1604
-618 3551 505 4952 1066 1331 2747 1960 4425 1657 1398 -252 2620 -1164 3270
-2439 817 -1604 618 -3553 -505 -4952 -416 -519 -927 -936 -1510 -1233 -543
-276 -1168 -449 -1765 -489 l-115 -7 75 -7 c41 -3 160 -11 265 -17 1523 -90
3050 -646 4302 -1566 355 -262 621 -491 948 -819 328 -327 557 -593 819 -948
572 -778 1034 -1723 1277 -2612 18 -66 36 -124 39 -128 8 -9 228 216 406 414
1608 1793 2591 4038 2813 6424 38 404 46 585 46 1055 0 470 -8 651 -46 1055
-200 2152 -1024 4203 -2367 5895 -297 374 -493 592 -866 966 -374 373 -592
569 -966 866 -1583 1257 -3488 2063 -5490 2322 -483 63 -832 86 -1360 90 -234
2 -456 2 -495 0z"/>
</g>
</svg>
