<?xml version="1.0" encoding="UTF-8"?>
<!DOCTYPE svg PUBLIC "-//W3C//DTD SVG 1.1//EN" "http://www.w3.org/Graphics/SVG/1.1/DTD/svg11.dtd">
<svg xmlns="http://www.w3.org/2000/svg" version="1.1" width="2400px" height="2400px" style="shape-rendering:geometricPrecision; text-rendering:geometricPrecision; image-rendering:optimizeQuality; fill-rule:evenodd; clip-rule:evenodd" xmlns:xlink="http://www.w3.org/1999/xlink">
<g><path style="opacity:0.995" fill="#000000" d="M 1192.5,302.5 C 1241.26,298.976 1281.42,315.643 1313,352.5C 1590.75,850.995 1868.75,1349.33 2147,1847.5C 2168.33,1885.79 2174.66,1926.46 2166,1969.5C 2152.99,2021.17 2121.66,2056.5 2072,2075.5C 2061.11,2078.81 2050.11,2081.47 2039,2083.5C 1477.24,2082.67 915.403,2082.17 353.5,2082C 295.621,2075.34 255.787,2045.18 234,1991.5C 226.055,1963.9 224.388,1935.9 229,1907.5C 231.47,1896.09 235.137,1885.09 240,1874.5C 263.823,1827.52 288.157,1780.85 313,1734.5C 314.044,1735.62 314.71,1736.96 315,1738.5C 578.253,1276.33 841.253,813.996 1104,351.5C 1127.51,324.331 1157.01,307.997 1192.5,302.5 Z"/></g>
<g><path style="opacity:1" fill="#fed329" d="M 1202.5,395.5 C 1215.95,394.815 1227.45,399.148 1237,408.5C 1511.93,902.422 1787.27,1396.09 2063,1889.5C 2068.39,1898.61 2072.39,1908.27 2075,1918.5C 2078.7,1938.37 2074.7,1956.37 2063,1972.5C 2054.63,1981.27 2044.47,1986.77 2032.5,1989C 1475.83,1989.67 919.167,1989.67 362.5,1989C 347.772,1987.56 335.938,1981.06 327,1969.5C 324.211,1964.47 322.211,1959.13 321,1953.5C 320.333,1944.17 320.333,1934.83 321,1925.5C 325.172,1914.15 330.172,1903.15 336,1892.5C 617.586,1397.66 898.92,902.662 1180,407.5C 1186.51,401.498 1194.01,397.498 1202.5,395.5 Z"/></g>
<g><path style="opacity:1" fill="#000000" d="M 1204.5,804.5 C 1248.73,803.963 1287.73,817.797 1321.5,846C 1331.7,855.528 1339.53,866.694 1345,879.5C 1346.86,884.324 1347.7,889.324 1347.5,894.5C 1334.73,1077.91 1321.23,1261.24 1307,1444.5C 1293.79,1489.96 1263.46,1513.96 1216,1516.5C 1166.73,1513.23 1136.39,1487.56 1125,1439.5C 1110.08,1257.65 1094.92,1075.82 1079.5,894C 1080.17,882.656 1084,872.489 1091,863.5C 1109.77,841.421 1132.94,825.588 1160.5,816C 1174.89,810.572 1189.55,806.738 1204.5,804.5 Z"/></g>
<g><path style="opacity:1" fill="#000000" d="M 1201.5,1582.5 C 1258.58,1579.12 1302.08,1601.45 1332,1649.5C 1358.23,1702.96 1352.9,1752.96 1316,1799.5C 1278.82,1838.11 1233.99,1851.28 1181.5,1839C 1125.31,1819.8 1093.81,1780.63 1087,1721.5C 1085.17,1680.34 1099,1645.51 1128.5,1617C 1149.54,1598.48 1173.88,1586.98 1201.5,1582.5 Z"/></g>
</svg>
